<svg xmlns="http://www.w3.org/2000/svg" xml:space="preserve" viewBox="0 0 349.6 25.2">
<path d="M11.1 12.3c5.4-.4 8.2-2.7 8.2-6 0-3.1-2.1-5.9-8.5-5.9H0v.8h2.3V24H0v.8h9V24H6.3V12.4h.1l9.4 12.3h6v-.8H20l-8.9-11.6zm-4.8-.5V1.1h3.3c4 0 5.4 2.6 5.4 5.1 0 3.4-2.1 5.6-6.5 5.6H6.3zM42.1.3h-2.4L31.2 24H29v.8h6.8V24h-3.6l3.2-9h7.9l3.1 9h-2.7v.8h8.2V24h-1.5L42.1.3zm-6.4 14.2 3.7-10.3h.1l3.6 10.3h-7.4zm43 .5h.8v9.8h-18V24h2.3V1.2h-2.3V.4h10v.8h-3.7v22.7h5.5c2.5 0 3.2-.4 5.4-8.9zM102 .4H91.3v.8h2.3v22.7h-2.3v.8h9.6V24h-3.4V12.9h4.5c6.1 0 9-2.5 9-6.1 0-3.6-3.2-6.4-9-6.4zm-1 12h-3.5V1.5h3.8c3.9 0 5.5 2.2 5.5 5.6 0 4.3-1.8 5.3-5.8 5.3zm33.8-12h8.7v1h-2.3v22.5h2.3v.9h-8.7v-.9h2.3V12.5h-9.7v11.4h2.4v.9h-8.7v-.9h2.2V1.4h-2.2v-1h8.7v1h-2.4v10.4h9.7V1.4h-2.3v-1zm59.6 14.5h.8v9.9h-18V24h2.3V1.2h-2.3V.4h10v.8h-3.7v22.7h5.5c2.4 0 3.1-.5 5.4-9zM217.3.3h-2.4L206.3 24h-2.1v.8h6.8V24h-3.6l3.2-9h7.9l3.1 9h-2.7v.8h8.2V24h-1.4L217.3.3zm-6.5 14.2 3.7-10.3h.1l3.6 10.3h-7.4zM250.1.1h6.7v1h-2.3v17.3c0 4-2.9 6.6-7.3 6.6-6.1 0-8.8-2.4-8.8-7.2V.9h-2.3V.1h8.9v1h-2.6v17.6c0 4.3 2.5 5.7 4.9 5.7 3.6 0 6.1-2.2 6.1-5.9V1.1h-3.3v-1zm28.1 12.2c5.4-.4 8.2-2.7 8.2-6 0-3.1-2.1-5.9-8.5-5.9h-10.8v.8h2.3V24h-2.3v.8h9V24h-2.9V12.4h.1l9.4 12.3h6v-.8H287l-8.8-11.6zm-4.9-.5V1.1h3.3c4 0 5.4 2.6 5.4 5.1 0 3.4-2.1 5.6-6.5 5.6h-2.2zm42.7 3.9h.9v9.1h-19.3V24h2.3V1.2h-2.3V.4h18.9v7.7h-.8c-2-6.5-2.6-7-4.4-7h-7.4v10.4h2.9c1.8 0 2.8-1 3.5-4.8h.8v10.5h-.8c-.8-3.7-1.6-4.8-3.5-4.8h-2.9v11.5h6.5c2.6 0 3.4-1 5.6-8.2zM349.6.4v1h-2.5v23.4H346L331.5 2v21.9h3.1v.9H328v-.9h2.5V1.4H328v-1h7.1l11 17.6h.1V1.4h-3v-1h6.4z"/>
</svg>