<?xml version="1.0" encoding="utf-8"?>
<!-- Generator: Adobe Illustrator 22.0.1, SVG Export Plug-In . SVG Version: 6.00 Build 0)  -->
<svg version="1.1" id="Layer_1" xmlns="http://www.w3.org/2000/svg" xmlns:xlink="http://www.w3.org/1999/xlink" x="0px" y="0px"
	 viewBox="0 0 426.4 72.7" style="enable-background:new 0 0 426.4 72.7;" xml:space="preserve">
<style type="text/css">
	.st0{fill:#FFFFFF;}
</style>
<g>
	<path class="st0" d="M0,32.2v-1h2.8V1.4H0v-1h13.4c7.7,0,10.4,3.7,10.4,7.7c0,4.5-3.5,7.5-10.1,8l10.9,15.2h2.3v1h-7.3L7.9,16H7.7
		v15.2h3.5v1H0z M7.7,15.3h2.7c5.5,0,8.1-2.7,8.1-7.2c0-3.2-1.6-6.7-6.7-6.7H7.7V15.3z"/>
	<path class="st0" d="M37.5,32.2v-1h2.7L50.9,0h2.9l10.1,31.2h1.8v1H55.6v-1H59l-3.8-11.8h-9.7l-4,11.8h4.4v1H37.5z M45.8,18.4h9.1
		L50.5,4.9h-0.1L45.8,18.4z"/>
	<path class="st0" d="M86,31.2h6.8c3,0,3.9-0.6,6.7-11.8h1v12.8H78.2v-1H81V1.4h-2.8v-1h12.3v1H86V31.2z"/>
	<path class="st0" d="M114.1,32.2v-1h2.8V1.4h-2.8v-1h13.2c7.3,0,11.3,3.5,11.3,8.3s-3.7,8.1-11.2,8.1h-5.5v14.4h4.2v1
		C126.1,32.2,114.1,32.2,114.1,32.2z M121.8,15.7h4.3c5,0,7.2-1.5,7.2-7c0-4.3-2-7.3-6.8-7.3h-4.7V15.7z"/>
	<path class="st0" d="M157.4,16.2v15h3v1h-10.8v-1h2.8V1.4h-2.8v-1h10.8v1h-3v13.8h12.2V1.4h-3v-1h10.8v1h-2.8v29.8h2.8v1h-10.8v-1
		h3v-15C169.6,16.2,157.4,16.2,157.4,16.2z"/>
	<path class="st0" d="M221.4,31.2h6.8c3,0,3.9-0.6,6.7-11.8h1v12.8h-22.2v-1h2.8V1.4h-2.8v-1H226v1h-4.6V31.2z"/>
	<path class="st0" d="M247.8,32.2v-1h2.7L261.2,0h2.9l10.1,31.2h1.8v1h-10.2v-1h3.4l-3.8-11.8h-9.7l-4,11.8h4.4v1H247.8z
		 M256.1,18.4h9.1l-4.4-13.5h-0.1L256.1,18.4z"/>
	<path class="st0" d="M296.7,0.4v1h-3.3v23.1c0,5.6,3.2,7.4,6.1,7.4c4.4,0,7.5-2.9,7.5-7.7V1.4h-4.1v-1h8.2v1h-2.8v22.9
		c0,5.3-3.5,8.7-8.9,8.7c-7.5,0-10.9-3.1-10.9-9.5V1.4h-2.8v-1C285.7,0.4,296.7,0.4,296.7,0.4z"/>
	<path class="st0" d="M323.8,32.2v-1h2.8V1.4h-2.8v-1h13.4c7.7,0,10.4,3.7,10.4,7.7c0,4.5-3.5,7.5-10.1,8l10.9,15.2h2.3v1h-7.3
		L331.7,16h-0.2v15.2h3.5v1H323.8z M331.5,15.3h2.7c5.5,0,8.1-2.7,8.1-7.2c0-3.2-1.6-6.7-6.7-6.7h-4.2v13.9H331.5z"/>
	<path class="st0" d="M362.6,32.2v-1h2.8V1.4h-2.8v-1H386v10.2h-1c-2.5-8.6-3.2-9.2-5.5-9.2h-9.1v13.8h3.6c2.3,0,3.4-1.4,4.3-6.3h1
		v13.7h-1c-0.9-4.9-2-6.3-4.3-6.3h-3.6v15h8.1c3.3,0,4.2-1.2,6.9-10.8h1v11.8L362.6,32.2L362.6,32.2z"/>
	<path class="st0" d="M404.1,2.3L404.1,2.3L404,31.2h3.9v1h-8.2v-1h3V1.4h-3v-1h8.8l13.5,23h0.1v-22h-3.7v-1h8v1h-3v30.8h-1.6
		L404.1,2.3z"/>
</g>
<g>
	<path class="st0" d="M94.8,72.7c-4.1,0-8.1-2.3-8.1-6.8c0-4.3,3.6-6.9,7.7-6.9c2.5,0,4.7,0.9,6.7,2.4l-1.2,1.8
		c-1.8-1.2-3.3-2-5.5-2c-2.8,0-5.6,1.6-5.6,4.7c0,3.2,3,4.6,5.8,4.6c2.1,0,3.9-0.6,5.6-1.8l1,2C99.3,72.1,97.2,72.7,94.8,72.7z"/>
	<path class="st0" d="M122.9,72.7c-4,0-7.8-2.5-7.8-6.8v-0.4c0-4.4,4-6.6,8-6.6c4.1,0,7.9,2.4,7.9,6.8C131,70.2,127,72.7,122.9,72.7
		z M123.1,61.2c-2.8,0-5.7,1.5-5.7,4.7c0,3.1,2.8,4.6,5.6,4.6s5.8-1.5,5.8-4.7C128.7,62.6,125.9,61.2,123.1,61.2z"/>
	<path class="st0" d="M146.9,72.3v-13h2.2V70h7.9v2.2h-10.1V72.3z"/>
	<path class="st0" d="M171,72.3v-13h2.2V70h7.9v2.2H171V72.3z"/>
	<path class="st0" d="M195.2,72.3v-13h11.4v2.2h-9.2v3h5v2.2h-5v3.4h9.4v2.2C206.8,72.3,195.2,72.3,195.2,72.3z"/>
	<path class="st0" d="M228.7,72.7c-4.1,0-8.1-2.3-8.1-6.8c0-4.3,3.6-6.9,7.7-6.9c2.5,0,4.7,0.9,6.7,2.4l-1.2,1.8
		c-1.8-1.2-3.3-2-5.5-2c-2.8,0-5.6,1.6-5.6,4.7c0,3.2,3,4.6,5.8,4.6c2.1,0,3.9-0.6,5.6-1.8l1,2C233.2,72.1,231.1,72.7,228.7,72.7z"
		/>
	<path class="st0" d="M255.2,61.5v10.7H253V61.5h-4.9v-2.2h12.1v2.2H255.2z"/>
	<path class="st0" d="M275.3,72.3v-13h2.2v13H275.3z"/>
	<path class="st0" d="M301.3,72.7c-4,0-7.8-2.5-7.8-6.8v-0.4c0-4.4,4-6.6,8-6.6c4.1,0,7.9,2.4,7.9,6.8
		C309.4,70.2,305.4,72.7,301.3,72.7z M301.5,61.2c-2.8,0-5.7,1.5-5.7,4.7c0,3.1,2.8,4.6,5.6,4.6c2.8,0,5.8-1.5,5.8-4.7
		C307.1,62.6,304.3,61.2,301.5,61.2z"/>
	<path class="st0" d="M335.6,72.3l-8.1-9.6v9.6h-2.2v-13h2.2l8.1,9.6v-9.6h2.2v12.9L335.6,72.3L335.6,72.3z"/>
</g>
</svg>
